<?xml version="1.0" encoding="utf-8"?>
<!-- Generator: Adobe Illustrator 25.2.0, SVG Export Plug-In . SVG Version: 6.00 Build 0)  -->
<svg version="1.1" xmlns="http://www.w3.org/2000/svg" xmlns:xlink="http://www.w3.org/1999/xlink" x="0px" y="0px"
	 viewBox="0 0 512 512" style="enable-background:new 0 0 512 512;" xml:space="preserve">
<style type="text/css">
	.st0{display:none;}
	.st1{display:inline;}
	.st2{fill:#222221;}
</style>
<g id="Warstwa_1" class="st0">
	<g id="XMLID_2080_" class="st1">
		<path class="st2" d="M255.9,510c-67.9,0-131.8-26.5-179.8-74.5c-48-48-74.5-111.9-74.5-179.8S28,123.9,76.1,75.8
			c48-48,111.9-74.5,179.8-74.5c67.9,0,131.8,26.5,179.8,74.5c48,48,74.5,111.9,74.5,179.8c0,67.9-26.5,131.8-74.5,179.8
			S323.8,510,255.9,510z M255.9,20.6c-129.6,0-235.1,105.4-235.1,235c0,129.6,105.4,235,235,235h0c129.6,0,235-105.4,235-235
			C491,126.1,385.5,20.6,255.9,20.6z"/>
		<path id="XMLID_2081_" class="st2" d="M218.6,403.6h59.6V254.4h41.6l4.4-49.9h-46c0,0,0-18.6,0-28.4c0-11.8,2.4-16.4,13.8-16.4
			c9.2,0,32.2,0,32.2,0v-51.8c0,0-34,0-41.2,0c-44.3,0-64.3,19.5-64.3,56.9c0,32.5,0,39.8,0,39.8h-31v50.6h31V403.6z"/>
	</g>
</g>
<g id="Warstwa_2" class="st0">
	<g id="XMLID_2023_" class="st1">
		<path class="st2" d="M255.9,509.1C116.2,509.1,2.5,395.4,2.5,255.7S116.2,2.4,255.9,2.4c139.7,0,253.3,113.6,253.3,253.3
			S395.6,509.1,255.9,509.1z M255.9,21.6c-129.1,0-234.1,105-234.1,234.1s105,234.1,234.1,234.1c129.1,0,234.1-105,234.1-234.1
			S385,21.6,255.9,21.6z"/>
		<g id="XMLID_2024_">
			<path id="XMLID_2076_" class="st2" d="M255.9,146.2c35.7,0,39.9,0.1,54,0.8c13,0.6,20.1,2.8,24.8,4.6c6.2,2.4,10.7,5.3,15.4,10
				c4.7,4.7,7.6,9.1,10,15.4c1.8,4.7,4,11.8,4.6,24.8c0.6,14.1,0.8,18.3,0.8,54s-0.1,39.9-0.8,54c-0.6,13-2.8,20.1-4.6,24.8
				c-2.4,6.2-5.3,10.7-10,15.4c-4.7,4.7-9.1,7.6-15.4,10c-4.7,1.8-11.8,4-24.8,4.6c-14.1,0.6-18.3,0.8-54,0.8s-39.9-0.1-54-0.8
				c-13-0.6-20.1-2.8-24.8-4.6c-6.2-2.4-10.7-5.3-15.4-10c-4.7-4.7-7.6-9.1-10-15.4c-1.8-4.7-4-11.8-4.6-24.8
				c-0.6-14.1-0.8-18.3-0.8-54s0.1-39.9,0.8-54c0.6-13,2.8-20.1,4.6-24.8c2.4-6.2,5.3-10.7,10-15.4c4.7-4.7,9.1-7.6,15.4-10
				c4.7-1.8,11.8-4,24.8-4.6C216,146.3,220.2,146.2,255.9,146.2 M255.9,122.1c-36.3,0-40.8,0.2-55.1,0.8
				c-14.2,0.6-23.9,2.9-32.4,6.2c-8.8,3.4-16.2,8-23.7,15.4c-7.4,7.4-12,14.9-15.4,23.7c-3.3,8.5-5.6,18.2-6.2,32.4
				c-0.7,14.3-0.8,18.8-0.8,55.1c0,36.3,0.2,40.8,0.8,55.1c0.6,14.2,2.9,23.9,6.2,32.4c3.4,8.8,8,16.2,15.4,23.7
				c7.4,7.4,14.9,12,23.7,15.4c8.5,3.3,18.2,5.6,32.4,6.2c14.3,0.6,18.8,0.8,55.1,0.8c36.3,0,40.8-0.2,55.1-0.8
				c14.2-0.6,23.9-2.9,32.4-6.2c8.8-3.4,16.2-8,23.7-15.4s12-14.9,15.4-23.7c3.3-8.5,5.6-18.2,6.2-32.4c0.6-14.3,0.8-18.8,0.8-55.1
				c0-36.3-0.2-40.8-0.8-55.1c-0.6-14.2-2.9-23.9-6.2-32.4c-3.4-8.8-8-16.2-15.4-23.7s-14.9-12-23.7-15.4
				c-8.5-3.3-18.2-5.6-32.4-6.2C296.7,122.3,292.2,122.1,255.9,122.1"/>
			<path id="XMLID_2073_" class="st2" d="M255.9,187.1c-37.9,0-68.6,30.7-68.6,68.6c0,37.9,30.7,68.6,68.6,68.6
				c37.9,0,68.6-30.7,68.6-68.6C324.5,217.8,293.8,187.1,255.9,187.1 M255.9,300.3c-24.6,0-44.5-19.9-44.5-44.5
				c0-24.6,19.9-44.5,44.5-44.5s44.5,19.9,44.5,44.5C300.4,280.3,280.5,300.3,255.9,300.3"/>
			<path id="XMLID_2025_" class="st2" d="M343.2,184.4c0,8.9-7.2,16-16,16c-8.9,0-16-7.2-16-16c0-8.9,7.2-16,16-16
				C336.1,168.4,343.2,175.6,343.2,184.4"/>
		</g>
	</g>
</g>
<g id="Warstwa_3">
	<g id="XMLID_2094_">
		<path class="st2" d="M256.7,510C117.1,510,3.5,396.4,3.5,256.8S117.1,3.5,256.7,3.5S510,117.1,510,256.8S396.4,510,256.7,510z
			 M256.7,22.7c-129.1,0-234.1,105-234.1,234.1s105,234.1,234.1,234.1s234.1-105,234.1-234.1S385.8,22.7,256.7,22.7z"/>
		<g id="XMLID_2095_">
			<g id="XMLID_2097_">
				<rect id="XMLID_2100_" x="146.2" y="202.5" class="st2" width="50.4" height="162.9"/>
				<path id="XMLID_2098_" class="st2" d="M171.2,181.1c16.5,0,29.8-13.5,29.8-30.1S187.7,121,171.2,121
					c-16.5,0-29.8,13.5-29.8,30.1S154.7,181.1,171.2,181.1z"/>
			</g>
			<path id="XMLID_2096_" class="st2" d="M277.3,279.8c0-22.9,10.5-36.5,30.7-36.5c18.5,0,27.5,13.1,27.5,36.5c0,23.5,0,85.5,0,85.5
				h50.2c0,0,0-59.5,0-103.1c0-43.6-24.7-64.7-59.3-64.7c-34.6,0-49.1,26.9-49.1,26.9v-21.9h-48.4v162.9h48.4
				C277.3,365.4,277.3,304.9,277.3,279.8z"/>
		</g>
	</g>
</g>
</svg>
