<?xml version="1.0" encoding="utf-8"?>
<!-- Generator: Adobe Illustrator 25.2.0, SVG Export Plug-In . SVG Version: 6.00 Build 0)  -->
<svg version="1.1" id="Warstwa_1" xmlns="http://www.w3.org/2000/svg" xmlns:xlink="http://www.w3.org/1999/xlink" x="0px" y="0px"
	 viewBox="0 0 512 512" style="enable-background:new 0 0 512 512;" xml:space="preserve">
<style type="text/css">
	.st0{fill:#222221;}
</style>
<g id="XMLID_2080_">
	<path class="st0" d="M255.9,510c-67.9,0-131.8-26.5-179.8-74.5c-48-48-74.5-111.9-74.5-179.8S28,123.9,76.1,75.8
		c48-48,111.9-74.5,179.8-74.5c67.9,0,131.8,26.5,179.8,74.5c48,48,74.5,111.9,74.5,179.8c0,67.9-26.5,131.8-74.5,179.8
		S323.8,510,255.9,510z M255.9,20.6c-129.6,0-235.1,105.4-235.1,235c0,129.6,105.4,235,235,235h0c129.6,0,235-105.4,235-235
		C491,126.1,385.5,20.6,255.9,20.6z"/>
	<path id="XMLID_2081_" class="st0" d="M218.6,403.6h59.6V254.4h41.6l4.4-49.9h-46c0,0,0-18.6,0-28.4c0-11.8,2.4-16.4,13.8-16.4
		c9.2,0,32.2,0,32.2,0v-51.8c0,0-34,0-41.2,0c-44.3,0-64.3,19.5-64.3,56.9c0,32.5,0,39.8,0,39.8h-31v50.6h31V403.6z"/>
</g>
</svg>
